<svg viewBox="0 0 101.5 39.3" version="1.1" xmlns="http://www.w3.org/2000/svg" id="Layer_1">
  <defs>
    <style>
      .st0 {
        fill: #013165;
      }

      .st1 {
        fill: #68cbdb;
      }
    </style>
  </defs>
  <path d="M27.5,19.7c1.2-1,1.9-2.5,1.9-4.2,0-3.1-2.5-5.6-5.6-5.6s-3.2.8-4.2,1.9c-1-1.2-2.5-1.9-4.2-1.9-3.1,0-5.6,2.5-5.6,5.6s.8,3.2,1.9,4.2c-1.2,1-1.9,2.5-1.9,4.2,0,3.1,2.5,5.6,5.6,5.6s3.2-.8,4.2-1.9c1,1.2,2.5,1.9,4.2,1.9,3.1,0,5.6-2.5,5.6-5.6s-.8-3.2-1.9-4.2ZM23.9,19.9c-2.9.7-3.3,1.1-4,4,0,.1-.1.2-.3.2s-.3,0-.3-.2c-.7-2.9-1.1-3.3-4-4-.1,0-.2-.1-.2-.3s0-.3.2-.3c2.9-.7,3.3-1.1,4-4,0-.1.1-.2.3-.2s.3,0,.3.2c.7,2.9,1.1,3.3,4,4,.1,0,.2.1.2.3s0,.3-.2.3Z" class="st1"></path>
  <path d="M36.4,17.2v-1.4c0-.5.4-.9.9-.9s.9.4.9.9v1.4h1.5c.4,0,.6.3.6.6s-.2.6-.6.6h-1.5v2.5c0,.8.6,1.4,1.5,1.4s.9.3.9.8-.3.8-.9.8h-.6c-1.6,0-2.7-1.2-2.7-2.8v-2.7h-.7c-.4,0-.6-.3-.6-.6s.2-.6.6-.6h.7Z" class="st0"></path>
  <path d="M44.1,17.1c2,0,3.5,1.4,3.5,3.4s-1.5,3.4-3.5,3.4-3.5-1.4-3.5-3.4,1.5-3.4,3.5-3.4M44.1,22.5c1,0,1.7-.8,1.7-2.1s-.7-2.1-1.7-2.1-1.7.8-1.7,2.1.7,2.1,1.7,2.1" class="st0"></path>
  <path d="M51.8,17.1c2,0,3.5,1.4,3.5,3.4s-1.5,3.4-3.5,3.4-3.5-1.4-3.5-3.4,1.5-3.4,3.5-3.4M51.8,22.5c1,0,1.7-.8,1.7-2.1s-.7-2.1-1.7-2.1-1.7.8-1.7,2.1.7,2.1,1.7,2.1" class="st0"></path>
  <path d="M56.7,17.2v-1.4c0-.5.4-.9.9-.9s.9.4.9.9v1.4h1.5c.4,0,.6.3.6.6s-.2.6-.6.6h-1.5v2.5c0,.8.6,1.4,1.5,1.4s.9.3.9.8-.3.8-.9.8h-.6c-1.6,0-2.7-1.2-2.7-2.8v-2.7h-.7c-.4,0-.6-.3-.6-.6s.2-.6.6-.6h.7Z" class="st0"></path>
  <path d="M61.4,15.8c0-.5.3-.9.9-.9s.9.3.9.9v2c.5-.4,1.2-.7,1.9-.7,1.6,0,2.8,1,2.8,2.5v3.5c0,.5-.3.9-.9.9s-.8-.3-.8-.9v-3.2c0-.8-.6-1.4-1.5-1.4s-1.5.6-1.5,1.4v3.2c0,.5-.3.9-.9.9s-.9-.3-.9-.9v-7.2Z" class="st0"></path>
  <path d="M72.9,23.9c-.9,0-1.6-.3-2.1-.8v2c0,.5-.3.9-.9.9s-.9-.3-.9-.9v-4.7c0-2,1.5-3.4,3.5-3.4s3.6,1.4,3.6,3.4-1.3,3.4-3.3,3.4M72.7,18.4c-1,0-1.8.8-1.8,2.1s.8,2.1,1.8,2.1,1.8-.8,1.8-2.1-.8-2.1-1.8-2.1" class="st0"></path>
  <path d="M80.4,17.1c2,0,3.5,1.4,3.5,3.4s-1.5,3.4-3.5,3.4-3.5-1.4-3.5-3.4,1.5-3.4,3.5-3.4M80.4,22.5c1,0,1.7-.8,1.7-2.1s-.7-2.1-1.7-2.1-1.7.8-1.7,2.1.7,2.1,1.7,2.1" class="st0"></path>
  <path d="M87.9,17.1c.9,0,1.6.3,2.1.8v-2c0-.5.3-.9.9-.9s.9.3.9.9v4.7c0,2-1.5,3.4-3.5,3.4s-3.6-1.4-3.6-3.4,1.3-3.4,3.3-3.4M88.2,22.5c1,0,1.8-.8,1.8-2.1s-.8-2.1-1.8-2.1-1.8.8-1.8,2.1.8,2.1,1.8,2.1" class="st0"></path>
</svg>
